<?xml version="1.0" encoding="utf-8"?>
<!-- Generator: Adobe Illustrator 21.1.0, SVG Export Plug-In . SVG Version: 6.00 Build 0)  -->
<svg version="1.1" id="Ebene_1" xmlns="http://www.w3.org/2000/svg" xmlns:xlink="http://www.w3.org/1999/xlink" x="0px" y="0px"
	 viewBox="0 0 560 288" style="enable-background:new 0 0 560 288;" xml:space="preserve">
<style type="text/css">
	.st0{fill:#FFFFFF;}
	.st1{font-family:'Museo-500';}
	.st2{font-size:79.1063px;}
	.st3{fill:#98F9C1;}
	.st4{fill:#1D1D1D;}
</style>
<text transform="matrix(1 0 0 1 190.1302 135.4805)"><tspan x="0" y="0" class="st0 st1 st2">Empathie</tspan><tspan x="0" y="71" class="st0 st1 st2">Maschine</tspan></text>
<g>
	<path class="st3" d="M141.8,89.6v76.1h0c-0.3,2.8-2.6,4.9-5.5,4.9c-2.8,0-5.2-2.2-5.5-4.9h0v-0.6c0,0,0,0,0,0s0,0,0,0V81
		c-3.2-2.1-6.6-3.9-10.2-5.5v67.1h0c0,3-2.5,5.5-5.5,5.5c-3,0-5.5-2.5-5.5-5.5c0,0,0,0,0-0.1V71.6c-3.8-1-7.8-1.7-11.8-2.1v95.7h0
		c-0.1,3-2.5,5.4-5.5,5.4c-3,0-5.4-2.4-5.5-5.4h0V69.4C57.6,71,33,89.8,22.7,115.8h48.6v0c3,0,5.4,2.5,5.4,5.5c0,3-2.4,5.4-5.4,5.5
		v0h-0.1c0,0,0,0,0,0s0,0,0,0H19.4c-0.7,3.3-1.2,6.7-1.5,10.2h43.3v0c3,0.1,5.3,2.5,5.3,5.5s-2.4,5.4-5.3,5.5v0h-0.1c0,0,0,0-0.1,0
		s0,0-0.1,0H17.8c0.3,4,0.9,8,1.8,11.8H71v0c0.1,0,0.2,0,0.3,0c3,0,5.5,2.5,5.5,5.5c0,3-2.5,5.5-5.5,5.5c-0.1,0-0.2,0-0.3,0v0H23.2
		c11,26.7,37.3,45.4,67.9,45.4c40.6,0,73.4-32.9,73.4-73.4C164.5,121.8,155.8,103,141.8,89.6z"/>
	<path class="st4" d="M71.3,126.7C71.3,126.7,71.3,126.7,71.3,126.7L71.3,126.7L71.3,126.7c3.1,0,5.5-2.5,5.5-5.5
		c0-3-2.4-5.4-5.4-5.5v0H22.7c-1.4,3.5-2.5,7.2-3.4,11L71.3,126.7C71.3,126.7,71.3,126.7,71.3,126.7z"/>
	<path class="st4" d="M61.1,147.9C61.1,147.9,61.1,147.9,61.1,147.9l0.2,0v0c3-0.1,5.3-2.5,5.3-5.5s-2.4-5.4-5.3-5.5v0H17.9
		c-0.1,1.9-0.2,3.8-0.2,5.8c0,1.7,0.1,3.5,0.2,5.2L61.1,147.9C61,147.9,61,147.9,61.1,147.9z"/>
	<path class="st4" d="M71,170.7c0.1,0,0.2,0,0.3,0c3,0,5.5-2.5,5.5-5.5c0-3-2.5-5.5-5.5-5.5c-0.1,0-0.2,0-0.3,0v0H19.6
		c0.9,3.8,2.1,7.4,3.5,11L71,170.7L71,170.7z"/>
	<path class="st4" d="M130.8,165.2C130.8,165.2,130.8,165.2,130.8,165.2l0,0.6h0c0.3,2.8,2.6,4.9,5.5,4.9c2.8,0,5.2-2.2,5.5-4.9h0
		V89.6c-3.4-3.2-7-6.1-11-8.6L130.8,165.2C130.8,165.2,130.8,165.2,130.8,165.2z"/>
	<path class="st4" d="M109.6,142.6c0,3,2.5,5.5,5.5,5.5c3,0,5.5-2.5,5.5-5.5h0V75.5c-3.5-1.6-7.2-2.8-11-3.8L109.6,142.6
		C109.7,142.6,109.6,142.6,109.6,142.6z"/>
	<path class="st4" d="M86.9,165.3c0.1,3,2.5,5.4,5.5,5.4c3,0,5.4-2.4,5.5-5.4h0V69.6c-2.2-0.2-4.5-0.3-6.8-0.3c-1.4,0-2.8,0-4.2,0.1
		L86.9,165.3L86.9,165.3z"/>
</g>
</svg>
